{"title":"Shohei Imamura - Fukushu suruwa wareniari aka Vengeance Is Mine ","uid":6063530,"size":1480428102,"categoryP":"video","categoryS":"movies","magnet":"?xt=urn:btih:0d5cade1c53e43f9506a533df7610e6e5e4f6b6a&amp;dn=Shohei+Imamura+-+Fukushu+suruwa+wareniari+aka+Vengeance+Is+Mine+&amp;tr=udp%3A%2F%2Ftracker.openbittorrent.com%3A80&amp;tr=udp%3A%2F%2Fopen.demonii.com%3A1337&amp;tr=udp%3A%2F%2Ftracker.coppersurfer.tk%3A6969&amp;tr=udp%3A%2F%2Fexodus.desync.com%3A6969","seeders":2,"leechers":1,"uploader":"mfccorrea","files":3,"time":1293225919,"description":"A gut-wrenching, violent psychological crime drama from start to finish, this award-winning film by noted Japanese director Shohei Imamura is based on a true story. Iwao Enokizu (Ken Ogata) is a murderous sociopath who kills two money lenders in a gory opening scene. Then flashbacks are interspersed with Enokizu's flight across Japan as his miserable childhood and the development of his malevolent, anti-social behavior are portrayed. Vicious and sexually aggressive, Enokizu's rage simmers during an earlier stay in prison as he imagines his wife is bedding down his father. Once on the run from the police, his aberrant sexual life and violent nature are further revealed in a series of gripping events. \n\n   General\n      Complete name : vengeance.is.mine.(shohei.imamura.1979).avi\n      Format : AVI\n      Format/Info : Audio Video Interleave\n      File size : 1.37 GiB\n      Duration : 2h 20mn\n      Overall bit rate : 1 391 Kbps\n      Writing application : VirtualDubMod 1.5.4.1 (build 2178/release)\n      Writing library : VirtualDubMod build 2178/release\n   Video #0\n      ID : 0\n      Format : MPEG-4 Visual\n      Format profile : AdvancedSimple@L5\n      Format settings, BVOP : Yes\n      Format settings, QPel : No\n      Format settings, GMC : No warppoints\n      Format settings, Matrix : Custom\n      Codec ID : XVID\n      Codec ID/Hint : XviD\n      Duration : 2h 20mn\n      Bit rate : 1 193 Kbps\n      Width : 608 pixels\n      Height : 368 pixels\n      Display aspect ratio : 1.652\n      Frame rate : 23.976 fps\n      Resolution : 24 bits\n      Colorimetry : 4:2:0\n      Scan type : Progressive\n      Bits/(Pixel*Frame) : 0.222\n      Stream size : 1.17 GiB (86%)\n      Writing library : XviD 1.1.2 (UTC 2006-11-01)\n   Audio #1\n      ID : 1\n      Format : AC-3\n      Format/Info : Audio Coding 3\n      Codec ID : 2000\n      Duration : 2h 20mn\n      Bit rate mode : Constant\n      Bit rate : 192 Kbps\n      Channel(s) : 1 channel\n      Channel positions : C\n      Sampling rate : 48.0 KHz\n      Stream size : 193 MiB (14%)\n      Alignment : Split accross interleaves\n      Interleave, duration : 96 ms (2.30 video frames)\n      Interleave, preload duration : 96 ms\n      Language : Japanese\n &lt;a href=&quot;\nhttp://www.imdb.com/title/tt0079182/&quot; rel=&quot;nofollow&quot; target=&quot;_NEW&quot;&gt;\nhttp://www.imdb.com/title/tt0079182/&lt;/a&gt;\n\nJapanese audio; English subpack\n\nPosted originally at KG by icedlemonade\n\nShohei Imamura - Fukushu suruwa wareniari aka Vengeance Is Mine (1979)","torrent":{"xt":"urn:btih:0d5cade1c53e43f9506a533df7610e6e5e4f6b6a","amp;dn":"Shohei+Imamura+-+Fukushu+suruwa+wareniari+aka+Vengeance+Is+Mine+","amp;tr":["udp%3A%2F%2Ftracker.openbittorrent.com%3A80","udp%3A%2F%2Fopen.demonii.com%3A1337","udp%3A%2F%2Ftracker.coppersurfer.tk%3A6969","udp%3A%2F%2Fexodus.desync.com%3A6969"],"infoHash":"0d5cade1c53e43f9506a533df7610e6e5e4f6b6a","infoHashBuffer":{"type":"Buffer","data":[13,92,173,225,197,62,67,249,80,106,83,61,247,97,14,110,94,79,107,106]},"announce":[],"urlList":[]}}